<svg xmlns="http://www.w3.org/2000/svg" xmlns:xlink="http://www.w3.org/1999/xlink" width="40" height="24" viewBox="0 0 40 24">
  <defs>
    <clipPath id="clip-paypal">
      <rect width="40" height="24"/>
    </clipPath>
  </defs>
  <g id="paypal" clip-path="url(#clip-paypal)">
    <rect width="40" height="24" fill="#fff"/>
    <g id="PayPal-2" data-name="PayPal" transform="translate(2.458 7.545)">
      <path id="Path_63" data-name="Path 63" d="M38.694,6.749H36.727a.273.273,0,0,0-.27.231l-.8,5.043a.164.164,0,0,0,.162.189h.939a.273.273,0,0,0,.27-.231l.215-1.36a.273.273,0,0,1,.27-.231h.623a2.02,2.02,0,0,0,2.239-1.869,1.515,1.515,0,0,0-.251-1.27A1.825,1.825,0,0,0,38.694,6.749Zm.227,1.842c-.108.706-.647.706-1.168.706h-.3l.208-1.318a.164.164,0,0,1,.162-.138h.136c.355,0,.69,0,.863.2A.655.655,0,0,1,38.921,8.591Z" transform="translate(-25.404 -4.808)" fill="#253b80"/>
      <path id="Path_64" data-name="Path 64" d="M55.619,12.856h-.942a.164.164,0,0,0-.162.138l-.042.263-.066-.1a1.341,1.341,0,0,0-1.112-.395,2.166,2.166,0,0,0-2.1,1.894,1.778,1.778,0,0,0,.351,1.447,1.474,1.474,0,0,0,1.186.479,1.8,1.8,0,0,0,1.3-.539l-.042.262a.164.164,0,0,0,.162.19H55a.273.273,0,0,0,.27-.231l.509-3.224A.163.163,0,0,0,55.619,12.856Zm-1.313,1.833a1.05,1.05,0,0,1-1.063.9.73.73,0,0,1-.78-.916,1.054,1.054,0,0,1,1.055-.906.8.8,0,0,1,.628.257A.815.815,0,0,1,54.306,14.689Z" transform="translate(-36.45 -9.095)" fill="#253b80"/>
      <path id="Path_65" data-name="Path 65" d="M73.226,13.075h-.946a.274.274,0,0,0-.226.12l-1.305,1.923-.553-1.848a.274.274,0,0,0-.262-.195H69a.164.164,0,0,0-.156.217l1.043,3.059-.98,1.384a.164.164,0,0,0,.134.259h.945a.273.273,0,0,0,.225-.117l3.148-4.544A.164.164,0,0,0,73.226,13.075Z" transform="translate(-49.041 -9.315)" fill="#253b80"/>
      <path id="Path_66" data-name="Path 66" d="M87.475,6.749H85.508a.273.273,0,0,0-.27.231l-.8,5.043a.164.164,0,0,0,.162.189h1.009a.191.191,0,0,0,.189-.162l.226-1.43a.273.273,0,0,1,.27-.231h.622a2.02,2.02,0,0,0,2.239-1.869,1.514,1.514,0,0,0-.251-1.27A1.823,1.823,0,0,0,87.475,6.749ZM87.7,8.591c-.107.706-.646.706-1.168.706h-.3l.209-1.318a.163.163,0,0,1,.162-.138h.136c.355,0,.69,0,.863.2A.655.655,0,0,1,87.7,8.591Z" transform="translate(-60.157 -4.808)" fill="#179bd7"/>
      <path id="Path_67" data-name="Path 67" d="M104.4,12.856h-.941a.163.163,0,0,0-.162.138l-.042.263-.066-.1a1.34,1.34,0,0,0-1.112-.395,2.166,2.166,0,0,0-2.1,1.894,1.779,1.779,0,0,0,.351,1.447,1.474,1.474,0,0,0,1.186.479,1.8,1.8,0,0,0,1.3-.539l-.042.262a.164.164,0,0,0,.162.19h.848a.273.273,0,0,0,.27-.231l.509-3.224A.164.164,0,0,0,104.4,12.856Zm-1.313,1.833a1.049,1.049,0,0,1-1.063.9.73.73,0,0,1-.78-.916,1.055,1.055,0,0,1,1.055-.906.8.8,0,0,1,.628.257A.811.811,0,0,1,103.089,14.689Z" transform="translate(-71.204 -9.095)" fill="#179bd7"/>
      <path id="Path_68" data-name="Path 68" d="M117.29,6.887l-.807,5.136a.164.164,0,0,0,.162.189h.812a.273.273,0,0,0,.27-.231l.8-5.043a.164.164,0,0,0-.162-.19h-.909A.164.164,0,0,0,117.29,6.887Z" transform="translate(-82.982 -4.807)" fill="#179bd7"/>
      <path id="Path_69" data-name="Path 69" d="M2.845,9.114,3,8.158l-.335-.008h-1.6L2.173,1.1A.093.093,0,0,1,2.2,1.046a.091.091,0,0,1,.059-.022h2.7A2.4,2.4,0,0,1,6.8,1.578a1.264,1.264,0,0,1,.294.551,1.99,1.99,0,0,1,0,.76l0,.022v.194l.151.086a1.061,1.061,0,0,1,.306.234,1.087,1.087,0,0,1,.248.557,2.358,2.358,0,0,1-.035.809,2.848,2.848,0,0,1-.331.915,1.883,1.883,0,0,1-.525.575A2.129,2.129,0,0,1,6.2,6.6a3.525,3.525,0,0,1-.883.1H5.1a.631.631,0,0,0-.624.533l-.016.086L4.2,9.006l-.012.062a.053.053,0,0,1-.017.036.044.044,0,0,1-.028.01Z" transform="translate(-0.756 -0.73)" fill="#253b80"/>
      <path id="Path_70" data-name="Path 70" d="M11.037,7.667h0q-.012.077-.028.158a2.828,2.828,0,0,1-3.127,2.457H7.091a.384.384,0,0,0-.38.326h0l-.405,2.57-.115.728a.2.2,0,0,0,.2.234h1.4a.338.338,0,0,0,.334-.285l.014-.071.264-1.677.017-.092a.338.338,0,0,1,.334-.285h.21A2.474,2.474,0,0,0,11.7,9.58a1.831,1.831,0,0,0-.281-1.617A1.342,1.342,0,0,0,11.037,7.667Z" transform="translate(-4.409 -5.462)" fill="#179bd7"/>
      <path id="Path_71" data-name="Path 71" d="M11.959,6.835q-.082-.024-.168-.043t-.178-.034a4.4,4.4,0,0,0-.7-.051H8.8a.337.337,0,0,0-.333.285l-.45,2.849-.013.083a.384.384,0,0,1,.38-.326h.791A2.829,2.829,0,0,0,12.3,7.141c.011-.054.02-.107.028-.158a1.9,1.9,0,0,0-.292-.123Z" transform="translate(-5.703 -4.778)" fill="#222d65"/>
      <path id="Path_72" data-name="Path 72" d="M2.765,2.214A.337.337,0,0,1,3.1,1.929H5.213a4.4,4.4,0,0,1,.7.051q.091.015.178.034t.168.043l.08.025a1.925,1.925,0,0,1,.292.123A1.725,1.725,0,0,0,6.263.654,2.68,2.68,0,0,0,4.205,0h-2.7a.386.386,0,0,0-.381.326L0,7.448a.232.232,0,0,0,.229.268H1.9l.418-2.653Z" fill="#253b80"/>
    </g>
  </g>
</svg>
