<svg xmlns="http://www.w3.org/2000/svg" xmlns:xlink="http://www.w3.org/1999/xlink" width="40" height="24" viewBox="0 0 40 24">
  <defs>
    <clipPath id="clip-stripe">
      <rect width="40" height="24"/>
    </clipPath>
  </defs>
  <g id="stripe" clip-path="url(#clip-stripe)">
    <rect width="40" height="24" fill="#fff"/>
    <g id="Stripe_Logo__revised_2016" data-name="Stripe_Logo,_revised_2016" transform="translate(-48.994 -30.205)">
      <path id="Path_57" data-name="Path 57" d="M345.753,71.331c0-2.086-1.01-3.731-2.941-3.731s-3.112,1.646-3.112,3.715c0,2.452,1.385,3.691,3.373,3.691a4.543,4.543,0,0,0,2.257-.53V72.847a4.326,4.326,0,0,1-2,.448c-.79,0-1.491-.277-1.581-1.238h3.984C345.737,71.951,345.753,71.527,345.753,71.331Zm-4.025-.774c0-.921.562-1.3,1.075-1.3.5,0,1.027.383,1.027,1.3Z" transform="translate(-262.423 -29.025)" fill="#635bff" fill-rule="evenodd"/>
      <path id="Path_58" data-name="Path 58" d="M261.7,67.6a2.3,2.3,0,0,0-1.6.635l-.106-.505H258.2v9.5l2.037-.432.008-2.306a2.294,2.294,0,0,0,1.442.513c1.458,0,2.786-1.173,2.786-3.756C264.465,68.887,263.121,67.6,261.7,67.6Zm-.489,5.614a1.218,1.218,0,0,1-.961-.383l-.008-3.023a1.213,1.213,0,0,1,.97-.4c.741,0,1.255.831,1.255,1.9C262.461,72.4,261.956,73.214,261.206,73.214Z" transform="translate(-187.563 -29.025)" fill="#635bff" fill-rule="evenodd"/>
      <path id="Path_59" data-name="Path 59" d="M223.8,38.094l2.045-.44V36l-2.045.432Z" transform="translate(-155.966)" fill="#635bff" fill-rule="evenodd"/>
      <rect id="Rectangle_9" data-name="Rectangle 9" width="2.045" height="7.129" transform="translate(67.834 38.713)" fill="#635bff"/>
      <path id="Path_60" data-name="Path 60" d="M175.59,68.953l-.13-.6H173.7v7.129h2.037V70.648a1.437,1.437,0,0,1,1.548-.424V68.351A1.383,1.383,0,0,0,175.59,68.953Z" transform="translate(-109.948 -29.637)" fill="#635bff" fill-rule="evenodd"/>
      <path id="Path_61" data-name="Path 61" d="M124.4,47.6l-1.988.424L122.4,54.55a2.047,2.047,0,0,0,2.11,2.094,3.147,3.147,0,0,0,1.426-.269V54.721c-.261.106-1.548.481-1.548-.725V51.1h1.548V49.368h-1.548Z" transform="translate(-62.827 -10.655)" fill="#635bff" fill-rule="evenodd"/>
      <path id="Path_62" data-name="Path 62" d="M56.061,69.808c0-.318.261-.44.693-.44a4.544,4.544,0,0,1,2.021.521V67.975a5.373,5.373,0,0,0-2.021-.375C55.1,67.6,54,68.464,54,69.906c0,2.249,3.1,1.89,3.1,2.86,0,.375-.326.5-.782.5a5.071,5.071,0,0,1-2.224-.652V74.55a5.648,5.648,0,0,0,2.224.464c1.695,0,2.86-.839,2.86-2.3C59.165,70.289,56.061,70.72,56.061,69.808Z" transform="translate(0 -29.025)" fill="#635bff" fill-rule="evenodd"/>
    </g>
  </g>
</svg>
